User Type,Username,Date,Text
,SU33,2008-08-04T13:57Z,"Yeah, very cute. Thanks for sharing."
,RubbingHood,2011-10-25T00:49Z,"General
Complete name                    : \___TO_PURETNA\Handjob Academy[VIP Rabel] Tekoki Hischool.wmv
Format                           : Windows Media
File size                        : 282 MiB
Duration                         : 1h 42mn
Overall bit rate mode            : Constant
Overall bit rate                 : 383 Kbps
Maximum Overall bit rate         : 389 Kbps
Encoded date                     : UTC 2004-12-26 18:54:49.324

Video
ID                               : 2
Format                           : MPEG-4 Visual
Codec ID                         : MP43
Codec ID/Info                    : Microsoft MPEG-4 v3 (pre-standard)
Codec ID/Hint                    : Microsoft
Description of the codec         : Windows Media MPEG-4 Video V3
Duration                         : 1h 42mn
Bit rate mode                    : Constant
Bit rate                         : 368 Kbps
Width                            : 320 pixels
Height                           : 240 pixels
Display aspect ratio             : 4:3
Frame rate                       : 30.000 fps
Bit depth                        : 8 bits
Compression mode                 : Lossy
Bits/(Pixel*Frame)               : 0.160
Stream size                      : 271 MiB (96%)

Audio
ID                               : 1
Format                           : WMA
Format version                   : Version 2
Codec ID                         : 161
Codec ID/Info                    : Windows Media Audio
Description of the codec         : Windows Media Audio 9.1 -  12 kbps,  8 kHz, stereo 1-pass CBR
Duration                         : 1h 42mn
Bit rate mode                    : Constant
Bit rate                         : 12.0 Kbps
Channel(s)                       : 2 channels
Sampling rate                    : 8 000 Hz
Bit depth                        : 16 bits
Stream size                      : 8.82 MiB (3%)
"
